HIERARCHY
ROOT joint_Root
{
	OFFSET 0.0 0.0 0.0
	CHANNELS 6 Xposition Yposition Zposition Zrotation Xrotation Yrotation 
	JOINT Hips
	{
		OFFSET -0.726466 93.3139 -2.00062
		CHANNELS 6 Xposition Yposition Zposition Zrotation Xrotation Yrotation 
		JOINT Spine
		{
			OFFSET 15.7357 0.0 0.0
			CHANNELS 6 Xposition Yposition Zposition Zrotation Xrotation Yrotation 
			JOINT Chest
			{
				OFFSET 8.98455 -0.406207 0.0
				CHANNELS 6 Xposition Yposition Zposition Zrotation Xrotation Yrotation 
				JOINT Neck
				{
					OFFSET 16.3773 0.0 0.0
					CHANNELS 6 Xposition Yposition Zposition Zrotation Xrotation Yrotation 
					JOINT Head
					{
						OFFSET 6.45672 0.0 0.0
						CHANNELS 6 Xposition Yposition Zposition Zrotation Xrotation Yrotation 
						End Site
						{
							OFFSET 0.0 0.0 0.0
						}
					}
				}
				JOINT Shoulder_L
				{
					OFFSET 12.9942 -0.242716 4.98039
					CHANNELS 6 Xposition Yposition Zposition Zrotation Xrotation Yrotation 
					JOINT UpperArm_L
					{
						OFFSET 5.34809 0.0 0.0
						CHANNELS 6 Xposition Yposition Zposition Zrotation Xrotation Yrotation 
						JOINT LowerArm_L
						{
							OFFSET 24.3286 1.87007e-05 0.0
							CHANNELS 6 Xposition Yposition Zposition Zrotation Xrotation Yrotation 
							JOINT Hand_L
							{
								OFFSET 22.2916 0.0 0.0
								CHANNELS 6 Xposition Yposition Zposition Zrotation Xrotation Yrotation 
								End Site
								{
									OFFSET 0.0 0.0 0.0
								}
							}
						}
					}
				}
				JOINT Shoulder_R
				{
					OFFSET 12.9945 -0.242716 -4.98039
					CHANNELS 6 Xposition Yposition Zposition Zrotation Xrotation Yrotation 
					JOINT UpperArm_R
					{
						OFFSET -5.34813 0.0 0.0
						CHANNELS 6 Xposition Yposition Zposition Zrotation Xrotation Yrotation 
						JOINT LowerArm_R
						{
							OFFSET -24.3289 0.000322201 0.0
							CHANNELS 6 Xposition Yposition Zposition Zrotation Xrotation Yrotation 
							JOINT Hand_R
							{
								OFFSET -22.2915 -0.000108084 0.0
								CHANNELS 6 Xposition Yposition Zposition Zrotation Xrotation Yrotation 
								End Site
								{
									OFFSET 0.0 0.0 0.0
								}
							}
						}
					}
				}
			}
		}
		JOINT UpperLeg_L
		{
			OFFSET -2.19248 -6.46944 0.0
			CHANNELS 6 Xposition Yposition Zposition Zrotation Xrotation Yrotation 
			JOINT LowerLeg_L
			{
				OFFSET 39.0811 0.0 -1.23785e-05
				CHANNELS 6 Xposition Yposition Zposition Zrotation Xrotation Yrotation 
				JOINT Foot_L
				{
					OFFSET 40.9854 0.0 -1.26872e-05
					CHANNELS 6 Xposition Yposition Zposition Zrotation Xrotation Yrotation 
					JOINT Toes_L
					{
						OFFSET 11.7543 0.0 0.0
						CHANNELS 6 Xposition Yposition Zposition Zrotation Xrotation Yrotation 
						End Site
						{
							OFFSET 0.0 0.0 0.0
						}
					}
				}
			}
		}
		JOINT UpperLeg_R
		{
			OFFSET -2.19251 6.46944 0.0
			CHANNELS 6 Xposition Yposition Zposition Zrotation Xrotation Yrotation 
			JOINT LowerLeg_R
			{
				OFFSET -39.0811 -0.00228153 -0.0401928
				CHANNELS 6 Xposition Yposition Zposition Zrotation Xrotation Yrotation 
				JOINT Foot_R
				{
					OFFSET -40.9854 0.0 0.0
					CHANNELS 6 Xposition Yposition Zposition Zrotation Xrotation Yrotation 
					JOINT Toes_R
					{
						OFFSET -11.7543 0.0 0.0
						CHANNELS 6 Xposition Yposition Zposition Zrotation Xrotation Yrotation 
						End Site
						{
							OFFSET 0.0 0.0 0.0
						}
					}
				}
			}
		}
	}
}
MOTION
Frames:	8
Frame Time:	0.0333333
0.000000 0.000000 0.000000 0.000000 0.000000 -0.000000 -2.019940 92.221000 -3.718020 87.842500 -0.383386 4.938110 15.735700 0.000005 -0.000001 80.796200 87.735500 -79.738000 8.984550 -0.406207 -0.000000 -3.287060 -0.826073 2.093250 16.377300 -0.000001 -0.000001 -4.760150 -3.046740 2.243740 6.456720 -0.000001 -0.000000 -4.682280 -1.407470 -1.952150 12.994200 -0.242716 4.980390 -84.442700 -12.202900 -65.282500 5.348090 -0.000007 -0.000001 -71.885400 -56.956800 -101.593000 24.328600 0.000019 0.000005 1.098520 0.584685 -61.978700 22.291600 -0.000001 0.000005 18.239100 5.587400 -10.616300 12.994500 -0.242716 -4.980390 92.735400 -6.021600 -65.513100 -5.348130 -0.000001 -0.000004 -62.523100 -53.873500 -112.058000 -24.328900 0.000322 -0.000009 3.348350 2.712930 -51.037100 -22.291500 -0.000108 -0.000004 19.594500 5.493230 -6.263160 -2.192480 -6.469440 -0.000000 -168.518000 -14.618000 -1.913170 39.081100 -0.000007 -0.000012 -0.152578 0.408450 20.483500 40.985400 -0.000006 -0.000013 -6.069490 4.287220 -61.828300 11.754300 -0.000000 0.000003 -0.000025 -0.000310 -16.589700 -2.192510 6.469440 -0.000001 175.701000 18.611200 178.961000 -39.081100 -0.002282 -0.040193 0.007752 -0.011866 20.480700 -40.985400 0.000008 0.000006 -0.951432 0.328306 -63.131800 -11.754300 -0.000006 -0.000006 -0.008518 -0.092211 -20.328500
0.000000 0.000000 0.000000 0.000000 0.000000 -0.000000 -2.046840 92.219600 -3.685040 87.800300 -0.287725 4.857280 15.735700 0.000005 -0.000001 80.450700 87.754900 -79.396900 8.984550 -0.406207 -0.000000 -3.329550 -0.846541 2.083480 16.377300 -0.000001 -0.000001 -4.686040 -3.041750 2.233060 6.456720 -0.000001 -0.000000 -4.663510 -1.410010 -1.893740 12.994200 -0.242716 4.980390 -84.427200 -12.214200 -65.241600 5.348090 -0.000007 -0.000001 -71.905700 -56.839600 -101.661000 24.328600 0.000019 0.000005 1.221550 0.652545 -61.892700 22.291600 -0.000001 0.000005 18.209700 5.586890 -10.587700 12.994500 -0.242716 -4.980390 92.729400 -6.006110 -65.505100 -5.348130 -0.000001 -0.000004 -62.634700 -53.883100 -112.114000 -24.328900 0.000322 -0.000009 3.300000 2.672660 -51.047600 -22.291500 -0.000108 -0.000004 19.444500 5.494560 -6.315720 -2.192480 -6.469440 -0.000000 -168.479000 -14.559700 -1.994270 39.081100 -0.000007 -0.000012 -0.153423 0.410550 20.490900 40.985400 -0.000006 -0.000013 -6.089440 4.318020 -61.845800 11.754300 -0.000000 0.000003 -0.000025 -0.000307 -16.589600 -2.192510 6.469440 -0.000001 175.792000 18.655100 178.919000 -39.081100 -0.002282 -0.040193 0.010277 -0.018642 20.463700 -40.985400 0.000008 0.000006 -0.900182 0.250286 -63.161900 -11.754300 -0.000006 -0.000006 -0.008321 -0.090636 -20.264200
0.000000 0.000000 0.000000 0.000000 0.000000 -0.000000 -2.074970 92.208500 -3.624310 87.792600 -0.277173 4.872810 15.735700 0.000005 -0.000001 80.811000 87.739900 -79.768200 8.984550 -0.406207 -0.000000 -3.295690 -0.822106 2.062610 16.377300 -0.000001 -0.000001 -4.618080 -3.055360 2.256560 6.456720 -0.000001 -0.000000 -4.632730 -1.405400 -1.936250 12.994200 -0.242716 4.980390 -84.421100 -12.235500 -65.254700 5.348090 -0.000007 -0.000001 -71.905100 -56.787200 -101.650000 24.328600 0.000019 0.000005 1.095990 0.587076 -61.826300 22.291600 -0.000001 0.000005 18.301000 5.588470 -10.674100 12.994500 -0.242716 -4.980390 92.734300 -6.015150 -65.498700 -5.348130 -0.000001 -0.000004 -62.711800 -53.911100 -112.162000 -24.328900 0.000322 -0.000009 3.285790 2.663850 -51.018800 -22.291500 -0.000108 -0.000004 19.413600 5.494600 -6.317650 -2.192480 -6.469440 -0.000000 -168.432000 -14.563600 -1.958810 39.081100 -0.000007 -0.000012 -0.154861 0.413561 20.529000 40.985400 -0.000006 -0.000013 -6.115450 4.341720 -61.893700 11.754300 -0.000000 0.000003 -0.000028 -0.000335 -16.590700 -2.192510 6.469440 -0.000001 175.798000 18.686900 178.956000 -39.081100 -0.002282 -0.040193 0.009872 -0.017498 20.527700 -40.985400 0.000008 0.000006 -0.877264 0.263870 -63.246800 -11.754300 -0.000006 -0.000006 -0.008294 -0.090412 -20.255000
0.000000 0.000000 0.000000 0.000000 0.000000 -0.000000 -2.098210 92.212200 -3.570920 87.788000 -0.235220 4.831240 15.735700 0.000005 -0.000001 80.709300 87.750200 -79.679700 8.984550 -0.406207 -0.000000 -3.317330 -0.825624 2.035820 16.377300 -0.000001 -0.000001 -4.563280 -3.054640 2.273730 6.456720 -0.000001 -0.000000 -4.570630 -1.415250 -1.950870 12.994200 -0.242716 4.980390 -84.421600 -12.233700 -65.253700 5.348090 -0.000007 -0.000001 -71.770100 -56.758800 -101.548000 24.328600 0.000019 0.000005 1.132810 0.607992 -61.780000 22.291600 -0.000001 0.000005 18.353900 5.590190 -10.772700 12.994500 -0.242716 -4.980390 92.739800 -6.020860 -65.475600 -5.348130 -0.000001 -0.000004 -62.796100 -53.863500 -112.236000 -24.328900 0.000322 -0.000009 3.240810 2.635010 -50.936700 -22.291500 -0.000108 -0.000004 19.481100 5.497450 -6.430950 -2.192480 -6.469440 -0.000000 -168.418000 -14.522200 -1.934250 39.081100 -0.000007 -0.000012 -0.154112 0.413136 20.457200 40.985400 -0.000006 -0.000013 -6.143160 4.331240 -61.890900 11.754300 -0.000000 0.000003 -0.000026 -0.000317 -16.589900 -2.192510 6.469440 -0.000001 175.823000 18.724800 178.967000 -39.081100 -0.002282 -0.040193 0.012983 -0.025833 20.507400 -40.985400 0.000008 0.000006 -0.730528 0.282705 -63.288200 -11.754300 -0.000006 -0.000006 -0.008735 -0.093926 -20.398600
0.000000 0.000000 0.000000 0.000000 0.000000 -0.000000 -2.133700 92.202900 -3.514520 87.779700 -0.233779 4.810570 15.735700 0.000005 -0.000001 80.677800 87.735900 -79.657600 8.984550 -0.406207 -0.000000 -3.289620 -0.831528 2.017040 16.377300 -0.000001 -0.000001 -4.534510 -3.084380 2.293690 6.456720 -0.000001 -0.000000 -4.577500 -1.436790 -1.972120 12.994200 -0.242716 4.980390 -84.419200 -12.211400 -65.205200 5.348090 -0.000007 -0.000001 -71.742200 -56.756300 -101.527000 24.328600 0.000019 0.000005 1.152410 0.618291 -61.788700 22.291600 -0.000001 0.000005 18.260300 5.587120 -10.600500 12.994500 -0.242716 -4.980390 92.735000 -6.006090 -65.460500 -5.348130 -0.000001 -0.000004 -62.944400 -53.854000 -112.437000 -24.328900 0.000322 -0.000009 3.337940 2.719990 -50.876900 -22.291500 -0.000108 -0.000004 19.441800 5.494040 -6.295570 -2.192480 -6.469440 -0.000000 -168.393000 -14.438400 -1.932690 39.081100 -0.000007 -0.000012 -0.155025 0.415049 20.481300 40.985400 -0.000006 -0.000013 -6.185810 4.264370 -61.940900 11.754300 -0.000000 0.000003 -0.000025 -0.000302 -16.589400 -2.192510 6.469440 -0.000001 175.829000 18.822400 178.977000 -39.081100 -0.002282 -0.040193 0.010313 -0.018663 20.541000 -40.985400 0.000008 0.000006 -0.790854 0.325680 -63.344000 -11.754300 -0.000006 -0.000006 -0.008483 -0.091929 -20.317000
0.000000 0.000000 0.000000 0.000000 0.000000 -0.000000 -2.147740 92.206500 -3.466990 87.771700 -0.267752 4.754350 15.735700 0.000005 -0.000001 81.014100 87.740400 -80.001400 8.984550 -0.406207 -0.000000 -3.294480 -0.803236 2.002790 16.377300 -0.000001 -0.000001 -4.502720 -3.090270 2.303280 6.456720 -0.000001 -0.000000 -4.599050 -1.466280 -1.957990 12.994200 -0.242716 4.980390 -84.429300 -12.202300 -65.228800 5.348090 -0.000007 -0.000001 -71.647100 -56.816200 -101.426000 24.328600 0.000019 0.000005 1.204570 0.646228 -61.790900 22.291600 -0.000001 0.000005 18.309900 5.588770 -10.692900 12.994500 -0.242716 -4.980390 92.746200 -6.016940 -65.410800 -5.348130 -0.000001 -0.000004 -63.086500 -53.825500 -112.609000 -24.328900 0.000322 -0.000009 3.353920 2.737290 -50.833300 -22.291500 -0.000108 -0.000004 19.537400 5.491890 -6.210080 -2.192480 -6.469440 -0.000000 -168.380000 -14.488300 -1.924070 39.081100 -0.000007 -0.000012 -0.154352 0.414346 20.431500 40.985400 -0.000006 -0.000013 -6.200170 4.260370 -61.944500 11.754300 -0.000000 0.000003 -0.000026 -0.000324 -16.590200 -2.192510 6.469440 -0.000001 175.857000 18.846000 178.957000 -39.081100 -0.002282 -0.040193 0.010395 -0.018907 20.513400 -40.985400 0.000008 0.000006 -0.697112 0.366165 -63.358700 -11.754300 -0.000006 -0.000006 -0.008119 -0.089000 -20.197400
0.000000 0.000000 0.000000 0.000000 0.000000 -0.000000 -2.172220 92.207400 -3.414660 87.770200 -0.276166 4.727730 15.735700 0.000005 -0.000001 81.085200 87.731000 -80.085300 8.984550 -0.406207 -0.000000 -3.275160 -0.799214 1.977380 16.377300 -0.000001 -0.000001 -4.501390 -3.126680 2.356020 6.456720 -0.000001 -0.000000 -4.602980 -1.479830 -1.988410 12.994200 -0.242716 4.980390 -84.421800 -12.223700 -65.236900 5.348090 -0.000007 -0.000001 -71.673500 -56.838000 -101.416000 24.328600 0.000019 0.000005 1.319420 0.706012 -61.853300 22.291600 -0.000001 0.000005 18.295400 5.584190 -10.438900 12.994500 -0.242716 -4.980390 92.751500 -6.022060 -65.387400 -5.348130 -0.000001 -0.000004 -63.159900 -53.855600 -112.701000 -24.328900 0.000322 -0.000009 3.276460 2.673760 -50.834900 -22.291500 -0.000108 -0.000004 19.408000 5.495570 -6.355910 -2.192480 -6.469440 -0.000000 -168.354000 -14.452300 -1.870050 39.081100 -0.000007 -0.000012 -0.154202 0.415530 20.359900 40.985400 -0.000006 -0.000013 -6.237200 4.253790 -61.949900 11.754300 -0.000000 0.000003 -0.000023 -0.000291 -16.588900 -2.192510 6.469440 -0.000001 175.879000 18.842500 178.973000 -39.081100 -0.002282 -0.040193 0.013025 -0.025941 20.510700 -40.985400 0.000008 0.000006 -0.580602 0.392645 -63.409000 -11.754300 -0.000006 -0.000006 -0.008519 -0.092215 -20.328700
0.000000 0.000000 0.000000 0.000000 0.000000 -0.000000 -2.201510 92.211000 -3.385460 87.737300 -0.290036 4.620400 15.735700 0.000005 -0.000001 80.805600 87.738800 -79.797800 8.984550 -0.406207 -0.000000 -3.293800 -0.819498 1.992570 16.377300 -0.000001 -0.000001 -4.520590 -3.135590 2.364490 6.456720 -0.000001 -0.000000 -4.626610 -1.467880 -2.011740 12.994200 -0.242716 4.980390 -84.426400 -12.215000 -65.239700 5.348090 -0.000007 -0.000001 -71.694000 -56.906700 -101.445000 24.328600 0.000019 0.000005 1.251380 0.671656 -61.779800 22.291600 -0.000001 0.000005 18.212500 5.586210 -10.550600 12.994500 -0.242716 -4.980390 92.766700 -6.049460 -65.366100 -5.348130 -0.000001 -0.000004 -63.141600 -53.888200 -112.712000 -24.328900 0.000322 -0.000009 3.381900 2.754190 -50.894400 -22.291500 -0.000108 -0.000004 19.477700 5.492410 -6.231050 -2.192480 -6.469440 -0.000000 -168.321000 -14.492200 -1.937970 39.081100 -0.000007 -0.000012 -0.153905 0.415549 20.323100 40.985400 -0.000006 -0.000013 -6.260790 4.256920 -61.943200 11.754300 -0.000000 0.000003 -0.000028 -0.000345 -16.591000 -2.192510 6.469440 -0.000001 175.963000 18.865600 178.905000 -39.081100 -0.002282 -0.040193 0.011850 -0.022875 20.450100 -40.985400 0.000008 0.000006 -0.596613 0.394167 -63.395700 -11.754300 -0.000006 -0.000006 -0.008297 -0.090442 -20.256300
